<?xml version="1.0" encoding="UTF-8" standalone="no"?><!DOCTYPE svg PUBLIC "-//W3C//DTD SVG 1.1//EN" "http://www.w3.org/Graphics/SVG/1.1/DTD/svg11.dtd"><svg width="100%" height="100%" viewBox="0 0 278 39" version="1.1" xmlns="http://www.w3.org/2000/svg" xmlns:xlink="http://www.w3.org/1999/xlink" xml:space="preserve" xmlns:serif="http://www.serif.com/" style="fill-rule:evenodd;clip-rule:evenodd;stroke-linecap:round;stroke-linejoin:round;stroke-miterlimit:10;"><g><path d="M122.819,6.668l1.544,0l2.498,4.189c0.242,0.409 0.526,1.049 0.526,1.049l0.02,0c0,0 -0.042,-0.777 -0.042,-1.301l0,-3.937l1.501,0l0,7.506l-1.47,-0l-2.561,-4.147c-0.241,-0.399 -0.535,-1.038 -0.535,-1.038l-0.021,-0c0,-0 0.041,0.787 0.041,1.311l0,3.874l-1.501,-0l0,-7.506" style="fill:#0d669e;fill-rule:nonzero;"/><path d="M131.87,11.413l1.984,0l-0.671,-2.163c-0.126,-0.398 -0.305,-1.154 -0.305,-1.154l-0.021,-0c0,-0 -0.189,0.756 -0.315,1.154l-0.672,2.163Zm0.221,-4.745l1.575,0l2.645,7.506l-1.585,-0l-0.504,-1.596l-2.708,0l-0.494,1.596l-1.543,-0l2.614,-7.506" style="fill:#0d669e;fill-rule:nonzero;"/><path d="M135.688,6.668l6.037,0l0,1.28l-2.258,0l0,6.226l-1.522,-0l0,-6.226l-2.257,0l0,-1.28" style="fill:#0d669e;fill-rule:nonzero;"/><path d="M142.419,6.668l1.522,0l0,7.506l-1.522,-0l0,-7.506" style="fill:#0d669e;fill-rule:nonzero;"/><path d="M150.533,10.437c0,-1.502 -0.672,-2.667 -2.047,-2.667c-1.376,-0 -2.079,1.165 -2.079,2.667c0,1.491 0.703,2.656 2.079,2.656c1.375,0 2.047,-1.165 2.047,-2.656Zm-5.679,-0c0,-2.248 1.406,-3.916 3.622,-3.916c2.214,-0 3.611,1.668 3.611,3.916c0,2.247 -1.397,3.905 -3.611,3.905c-2.216,0 -3.622,-1.658 -3.622,-3.905" style="fill:#0d669e;fill-rule:nonzero;"/><path d="M153.001,6.668l1.544,0l2.498,4.189c0.241,0.409 0.525,1.049 0.525,1.049l0.021,0c0,0 -0.042,-0.777 -0.042,-1.301l0,-3.937l1.501,0l0,7.506l-1.47,-0l-2.561,-4.147c-0.242,-0.399 -0.536,-1.038 -0.536,-1.038l-0.02,-0c0,-0 0.041,0.787 0.041,1.311l0,3.874l-1.501,-0l0,-7.506" style="fill:#0d669e;fill-rule:nonzero;"/><path d="M162.052,11.413l1.984,0l-0.672,-2.163c-0.126,-0.398 -0.304,-1.154 -0.304,-1.154l-0.021,-0c0,-0 -0.189,0.756 -0.315,1.154l-0.672,2.163Zm0.22,-4.745l1.576,0l2.644,7.506l-1.585,-0l-0.504,-1.596l-2.708,0l-0.494,1.596l-1.543,-0l2.614,-7.506" style="fill:#0d669e;fill-rule:nonzero;"/><path d="M167.112,6.668l1.523,0l0,6.236l3.527,-0l0,1.27l-5.05,-0l0,-7.506" style="fill:#0d669e;fill-rule:nonzero;"/><path d="M174.756,6.668l1.522,0l0,7.506l-1.522,-0l0,-7.506" style="fill:#0d669e;fill-rule:nonzero;"/><path d="M177.528,6.668l1.544,0l2.498,4.189c0.242,0.409 0.526,1.049 0.526,1.049l0.02,0c0,0 -0.042,-0.777 -0.042,-1.301l0,-3.937l1.501,0l0,7.506l-1.47,-0l-2.561,-4.147c-0.241,-0.399 -0.535,-1.038 -0.535,-1.038l-0.021,-0c0,-0 0.041,0.787 0.041,1.311l0,3.874l-1.501,-0l0,-7.506" style="fill:#0d669e;fill-rule:nonzero;"/><path d="M184.481,11.854l1.492,-0c0.104,0.903 0.619,1.26 1.689,1.26c0.777,-0 1.46,-0.273 1.46,-0.966c0,-0.735 -0.714,-0.882 -1.858,-1.144c-1.344,-0.305 -2.573,-0.662 -2.573,-2.227c0,-1.479 1.207,-2.246 2.877,-2.246c1.69,0 2.782,0.83 2.898,2.341l-1.46,0c-0.084,-0.756 -0.672,-1.133 -1.448,-1.133c-0.82,-0 -1.355,0.346 -1.355,0.881c0,0.61 0.526,0.788 1.638,1.03c1.544,0.336 2.804,0.703 2.804,2.319c0,1.522 -1.229,2.373 -2.919,2.373c-2.037,0 -3.192,-0.902 -3.245,-2.488" style="fill:#0d669e;fill-rule:nonzero;"/><path d="M191.047,6.668l6.036,0l0,1.28l-2.257,0l0,6.226l-1.522,-0l0,-6.226l-2.257,0l0,-1.28" style="fill:#0d669e;fill-rule:nonzero;"/><path d="M197.777,6.668l1.523,0l0,7.506l-1.523,-0l0,-7.506" style="fill:#0d669e;fill-rule:nonzero;"/><path d="M199.979,6.668l6.036,0l0,1.28l-2.257,0l0,6.226l-1.523,-0l0,-6.226l-2.256,0l0,-1.28" style="fill:#0d669e;fill-rule:nonzero;"/><path d="M206.671,11.76l0,-5.092l1.522,0l0,5.092c0,0.776 0.388,1.322 1.407,1.322c0.965,-0 1.417,-0.566 1.417,-1.343l0,-5.071l1.522,0l0,5.092c0,1.605 -0.986,2.54 -2.908,2.54c-1.942,-0 -2.96,-0.913 -2.96,-2.54" style="fill:#0d669e;fill-rule:nonzero;"/><path d="M213.197,6.668l6.036,0l0,1.28l-2.256,0l0,6.226l-1.523,-0l0,-6.226l-2.257,0l0,-1.28" style="fill:#0d669e;fill-rule:nonzero;"/><path d="M219.922,6.668l5.522,0l0,1.28l-4,0l0,1.68l3.507,0l0,1.249l-3.507,-0l0,2.027l4.032,-0l0,1.27l-5.554,-0l0,-7.506" style="fill:#0d669e;fill-rule:nonzero;"/><path d="M233.539,10.437c0,-1.502 -0.672,-2.667 -2.047,-2.667c-1.376,-0 -2.079,1.165 -2.079,2.667c0,1.491 0.703,2.656 2.079,2.656c1.375,0 2.047,-1.165 2.047,-2.656Zm-5.68,-0c0,-2.248 1.407,-3.916 3.622,-3.916c2.215,-0 3.612,1.668 3.612,3.916c0,2.247 -1.397,3.905 -3.612,3.905c-2.215,0 -3.622,-1.658 -3.622,-3.905" style="fill:#0d669e;fill-rule:nonzero;"/><path d="M236.007,6.668l5.375,0l0,1.291l-3.853,0l0,1.806l3.265,-0l0,1.301l-3.265,0l0,3.108l-1.522,-0l0,-7.506" style="fill:#0d669e;fill-rule:nonzero;"/><path d="M122.483,22.354l1.492,-0c0.104,0.903 0.619,1.26 1.689,1.26c0.777,-0 1.46,-0.273 1.46,-0.966c0,-0.735 -0.714,-0.882 -1.858,-1.144c-1.344,-0.305 -2.573,-0.662 -2.573,-2.227c0,-1.479 1.207,-2.246 2.877,-2.246c1.69,0 2.782,0.83 2.898,2.341l-1.46,0c-0.084,-0.756 -0.672,-1.133 -1.448,-1.133c-0.82,-0 -1.355,0.346 -1.355,0.881c-0,0.61 0.525,0.789 1.638,1.03c1.544,0.335 2.803,0.703 2.803,2.319c0,1.522 -1.228,2.373 -2.918,2.373c-2.037,0 -3.192,-0.902 -3.245,-2.488" style="fill:#0d669e;fill-rule:nonzero;"/><path d="M129.049,17.168l6.036,-0l0,1.28l-2.257,0l0,6.226l-1.522,-0l0,-6.226l-2.257,0l0,-1.28" style="fill:#0d669e;fill-rule:nonzero;"/><path d="M136.854,21.913l1.984,0l-0.672,-2.163c-0.126,-0.398 -0.305,-1.154 -0.305,-1.154l-0.02,0c0,0 -0.19,0.756 -0.316,1.154l-0.671,2.163Zm0.22,-4.745l1.574,-0l2.647,7.506l-1.586,-0l-0.504,-1.596l-2.708,0l-0.493,1.596l-1.544,-0l2.614,-7.506" style="fill:#0d669e;fill-rule:nonzero;"/><path d="M141.914,17.168l1.543,-0l2.499,4.189c0.241,0.409 0.524,1.049 0.524,1.049l0.022,0c0,0 -0.042,-0.777 -0.042,-1.301l0,-3.937l1.501,-0l0,7.506l-1.47,-0l-2.561,-4.147c-0.242,-0.399 -0.535,-1.038 -0.535,-1.038l-0.022,-0c0,-0 0.043,0.787 0.043,1.311l0,3.874l-1.502,-0l0,-7.506" style="fill:#0d669e;fill-rule:nonzero;"/><path d="M151.92,23.361c1.428,0 1.984,-0.871 1.984,-2.361c0,-1.491 -0.651,-2.53 -1.942,-2.53l-1.218,-0l0,4.891l1.176,0Zm-2.698,-6.193l2.928,-0c2.006,-0 3.297,1.616 3.297,3.832c0,1.217 -0.409,2.288 -1.197,2.949c-0.556,0.462 -1.28,0.725 -2.225,0.725l-2.803,-0l0,-7.506" style="fill:#0d669e;fill-rule:nonzero;"/><path d="M157.837,21.913l1.984,0l-0.672,-2.163c-0.126,-0.398 -0.304,-1.154 -0.304,-1.154l-0.021,0c0,0 -0.189,0.756 -0.315,1.154l-0.672,2.163Zm0.221,-4.745l1.575,-0l2.644,7.506l-1.585,-0l-0.504,-1.596l-2.708,0l-0.494,1.596l-1.543,-0l2.615,-7.506" style="fill:#0d669e;fill-rule:nonzero;"/><path d="M164.42,20.485l1.617,0c0.829,0 1.238,-0.43 1.238,-1.029c0,-0.608 -0.388,-1.059 -1.197,-1.059l-1.658,-0l0,2.088Zm-1.523,-3.317l3.444,-0c1.449,-0 2.415,0.84 2.415,2.089c0,0.882 -0.41,1.553 -1.375,1.816l0,0.032c0.692,0.199 1.049,0.598 1.143,1.511c0.106,1.061 0.064,1.869 0.326,1.985l0,0.073l-1.459,-0c-0.189,-0.084 -0.21,-0.924 -0.273,-1.733c-0.063,-0.818 -0.525,-1.28 -1.47,-1.28l-1.228,0l0,3.013l-1.523,-0l0,-7.506" style="fill:#0d669e;fill-rule:nonzero;"/><path d="M172.521,23.361c1.428,0 1.985,-0.871 1.985,-2.361c0,-1.491 -0.652,-2.53 -1.943,-2.53l-1.217,-0l0,4.891l1.175,0Zm-2.698,-6.193l2.929,-0c2.006,-0 3.297,1.616 3.297,3.832c0,1.217 -0.409,2.288 -1.197,2.949c-0.556,0.462 -1.281,0.725 -2.225,0.725l-2.804,-0l0,-7.506" style="fill:#0d669e;fill-rule:nonzero;"/><path d="M176.543,22.354l1.491,-0c0.105,0.903 0.619,1.26 1.691,1.26c0.776,-0 1.459,-0.273 1.459,-0.966c0,-0.735 -0.714,-0.882 -1.859,-1.144c-1.344,-0.305 -2.572,-0.662 -2.572,-2.227c0,-1.479 1.208,-2.246 2.877,-2.246c1.69,0 2.782,0.83 2.897,2.341l-1.459,0c-0.084,-0.756 -0.672,-1.133 -1.449,-1.133c-0.818,-0 -1.354,0.346 -1.354,0.881c0,0.61 0.525,0.789 1.637,1.03c1.543,0.335 2.803,0.703 2.803,2.319c0,1.522 -1.227,2.373 -2.918,2.373c-2.037,0 -3.191,-0.902 -3.244,-2.488" style="fill:#0d669e;fill-rule:nonzero;"/><path d="M187.231,21.913l1.985,0l-0.672,-2.163c-0.126,-0.398 -0.305,-1.154 -0.305,-1.154l-0.02,0c0,0 -0.19,0.756 -0.316,1.154l-0.672,2.163Zm0.221,-4.745l1.575,-0l2.645,7.506l-1.585,-0l-0.504,-1.596l-2.708,0l-0.494,1.596l-1.543,-0l2.614,-7.506" style="fill:#0d669e;fill-rule:nonzero;"/><path d="M192.292,17.168l1.544,-0l2.498,4.189c0.241,0.409 0.525,1.049 0.525,1.049l0.021,0c0,0 -0.042,-0.777 -0.042,-1.301l0,-3.937l1.501,-0l0,7.506l-1.47,-0l-2.561,-4.147c-0.242,-0.399 -0.536,-1.038 -0.536,-1.038l-0.02,-0c0,-0 0.041,0.787 0.041,1.311l0,3.874l-1.501,-0l0,-7.506" style="fill:#0d669e;fill-rule:nonzero;"/><path d="M202.299,23.361c1.428,0 1.984,-0.871 1.984,-2.361c0,-1.491 -0.651,-2.53 -1.942,-2.53l-1.218,-0l0,4.891l1.176,0Zm-2.698,-6.193l2.928,-0c2.006,-0 3.297,1.616 3.297,3.832c0,1.217 -0.409,2.288 -1.197,2.949c-0.556,0.462 -1.28,0.725 -2.225,0.725l-2.803,-0l0,-7.506" style="fill:#0d669e;fill-rule:nonzero;"/><path d="M208.031,17.168l6.037,-0l0,1.28l-2.257,0l0,6.226l-1.522,-0l0,-6.226l-2.258,0l0,-1.28" style="fill:#0d669e;fill-rule:nonzero;"/><path d="M214.757,17.168l5.522,-0l0,1.28l-4,0l0,1.68l3.506,0l0,1.249l-3.506,-0l0,2.026l4.032,0l0,1.271l-5.554,-0l0,-7.506" style="fill:#0d669e;fill-rule:nonzero;"/><path d="M220.805,20.947c0,-2.225 1.385,-3.926 3.6,-3.926c1.848,-0 2.94,1.102 3.097,2.53l-1.512,0c-0.136,-0.756 -0.703,-1.249 -1.585,-1.249c-1.385,0 -2.047,1.154 -2.047,2.645c0,1.533 0.798,2.635 2.058,2.635c0.893,0 1.522,-0.535 1.617,-1.322l1.49,-0c-0.042,0.661 -0.325,1.301 -0.829,1.774c-0.514,0.483 -1.239,0.797 -2.278,0.797c-2.11,0 -3.611,-1.627 -3.611,-3.884" style="fill:#0d669e;fill-rule:nonzero;"/><path d="M228.392,17.168l1.522,-0l0,2.939l2.95,0l0,-2.939l1.523,-0l0,7.506l-1.523,-0l0,-3.306l-2.95,-0l0,3.306l-1.522,-0l0,-7.506" style="fill:#0d669e;fill-rule:nonzero;"/><path d="M235.647,17.168l1.544,-0l2.498,4.189c0.242,0.409 0.526,1.049 0.526,1.049l0.02,0c0,0 -0.042,-0.777 -0.042,-1.301l0,-3.937l1.501,-0l0,7.506l-1.469,-0l-2.562,-4.147c-0.241,-0.399 -0.535,-1.038 -0.535,-1.038l-0.021,-0c0,-0 0.041,0.787 0.041,1.311l0,3.874l-1.501,-0l0,-7.506" style="fill:#0d669e;fill-rule:nonzero;"/><path d="M248.304,20.937c0,-1.502 -0.672,-2.668 -2.048,-2.668c-1.375,0 -2.078,1.166 -2.078,2.668c0,1.491 0.703,2.656 2.078,2.656c1.376,0 2.048,-1.165 2.048,-2.656Zm-5.68,-0c0,-2.248 1.407,-3.916 3.622,-3.916c2.215,-0 3.611,1.668 3.611,3.916c0,2.247 -1.396,3.905 -3.611,3.905c-2.215,0 -3.622,-1.658 -3.622,-3.905" style="fill:#0d669e;fill-rule:nonzero;"/><path d="M250.771,17.168l1.523,-0l0,6.235l3.527,0l0,1.271l-5.05,-0l0,-7.506" style="fill:#0d669e;fill-rule:nonzero;"/><path d="M261.753,20.937c0,-1.502 -0.672,-2.668 -2.048,-2.668c-1.375,0 -2.078,1.166 -2.078,2.668c0,1.491 0.703,2.656 2.078,2.656c1.376,0 2.048,-1.165 2.048,-2.656Zm-5.68,-0c0,-2.248 1.407,-3.916 3.622,-3.916c2.215,-0 3.612,1.668 3.612,3.916c0,2.247 -1.397,3.905 -3.612,3.905c-2.215,0 -3.622,-1.658 -3.622,-3.905" style="fill:#0d669e;fill-rule:nonzero;"/><path d="M269.625,23.666l-0.021,0c-0.514,0.861 -1.217,1.165 -2.11,1.165c-1.134,0 -2.015,-0.409 -2.635,-1.091c-0.619,-0.693 -0.976,-1.659 -0.976,-2.793c0,-1.25 0.441,-2.341 1.228,-3.065c0.61,-0.557 1.407,-0.861 2.414,-0.861c1.891,-0 2.972,1.04 3.213,2.509l-1.49,-0c-0.168,-0.724 -0.725,-1.249 -1.69,-1.249c-1.417,-0 -2.121,1.175 -2.121,2.666c0,1.533 0.808,2.657 2.099,2.657c1.165,-0 1.932,-0.872 1.932,-1.702l0,-0.041l-1.806,-0l0,-1.176l3.16,-0l0,3.989l-1.144,-0l-0.053,-1.008" style="fill:#0d669e;fill-rule:nonzero;"/><path d="M273.381,21.777l-2.499,-4.609l1.659,-0l1.133,2.226c0.231,0.451 0.494,1.07 0.494,1.07l0.02,0c0,0 0.285,-0.619 0.504,-1.07l1.114,-2.226l1.595,-0l-2.499,4.609l0,2.897l-1.521,-0l0,-2.897" style="fill:#0d669e;fill-rule:nonzero;"/><path d="M122.737,33.094l0,-4.357l0.811,0l0,4.277c0,1.097 0.621,1.566 1.683,1.566c1.017,0 1.629,-0.469 1.629,-1.566l-0,-4.277l0.811,0l-0,4.357c-0,1.558 -1.09,2.179 -2.467,2.179c-1.404,-0 -2.467,-0.621 -2.467,-2.179" style="fill:#6d6f71;fill-rule:nonzero;"/><path d="M128.842,34.282l0.873,0l0,0.892l-0.873,-0l0,-0.892" style="fill:#6d6f71;fill-rule:nonzero;"/><path d="M130.657,32.995l0.792,0c0.109,1.09 0.775,1.657 1.989,1.657c0.892,-0 1.532,-0.406 1.532,-1.207c0,-0.881 -0.775,-1.088 -1.927,-1.342c-1.135,-0.251 -2.106,-0.576 -2.106,-1.79c-0,-1.063 0.881,-1.702 2.187,-1.702c1.611,0 2.277,0.819 2.439,2.007l-0.765,0c-0.116,-0.918 -0.711,-1.377 -1.656,-1.377c-0.873,0 -1.45,0.369 -1.45,1.036c-0,0.729 0.72,0.945 1.684,1.134c1.251,0.252 2.395,0.558 2.395,2.007c-0,1.207 -0.982,1.882 -2.368,1.882c-1.809,-0 -2.674,-1.008 -2.746,-2.305" style="fill:#6d6f71;fill-rule:nonzero;"/><path d="M136.887,34.282l0.873,0l0,0.892l-0.873,-0l0,-0.892" style="fill:#6d6f71;fill-rule:nonzero;"/><path d="M142.709,34.463c1.513,0 2.116,-0.973 2.116,-2.485c0,-1.512 -0.54,-2.539 -2.053,-2.539l-1.503,0l0,5.024l1.44,0Zm-2.25,-5.726l2.341,0c1.935,0 2.853,1.315 2.853,3.241c0,1.927 -0.981,3.196 -2.917,3.196l-2.277,-0l0,-6.437" style="fill:#6d6f71;fill-rule:nonzero;"/><path d="M146.917,28.737l4.546,0l0,0.711l-3.736,0l0,2.034l3.394,0l0,0.685l-3.394,0l0,2.26l3.844,0l0,0.747l-4.654,-0l0,-6.437" style="fill:#6d6f71;fill-rule:nonzero;"/><path d="M153.459,31.816l1.692,-0c0.911,-0 1.342,-0.459 1.342,-1.198c0,-0.774 -0.477,-1.179 -1.296,-1.179l-1.738,0l0,2.377Zm-0.81,-3.079l2.683,0c0.675,0 1.197,0.225 1.53,0.622c0.271,0.314 0.433,0.738 0.433,1.223c0,1.18 -0.676,1.891 -2.08,1.891l-1.756,-0l0,2.701l-0.81,-0l0,-6.437" style="fill:#6d6f71;fill-rule:nonzero;"/><path d="M159.079,32.554l2.107,-0l-0.739,-2.16c-0.126,-0.36 -0.288,-0.909 -0.288,-0.909l-0.017,-0c0,-0 -0.171,0.54 -0.298,0.909l-0.765,2.16Zm0.612,-3.817l0.91,0l2.377,6.437l-0.883,-0l-0.685,-1.963l-2.565,-0l-0.694,1.963l-0.828,-0l2.368,-6.437" style="fill:#6d6f71;fill-rule:nonzero;"/><path d="M164.735,31.798l1.91,-0c0.9,-0 1.35,-0.45 1.35,-1.18c0,-0.783 -0.36,-1.179 -1.306,-1.179l-1.954,0l0,2.359Zm-0.809,-3.061l3.007,0c1.133,0 1.899,0.711 1.899,1.764c0,0.784 -0.342,1.342 -1.116,1.594l0,0.027c0.657,0.235 0.864,0.684 0.927,1.639c0.072,1.035 0.18,1.296 0.296,1.377l0,0.036l-0.873,-0c-0.134,-0.117 -0.162,-0.36 -0.233,-1.44c-0.063,-0.946 -0.441,-1.279 -1.306,-1.279l-1.792,0l0,2.719l-0.809,-0l0,-6.437" style="fill:#6d6f71;fill-rule:nonzero;"/><path d="M169.594,28.737l5.095,0l0,0.711l-2.142,0l0,5.726l-0.811,-0l0,-5.726l-2.142,0l0,-0.711" style="fill:#6d6f71;fill-rule:nonzero;"/><path d="M175.694,28.737l1.035,0l2.089,5.348l0.018,0l2.07,-5.348l1.054,0l0,6.437l-0.774,-0l0,-5.294l-0.018,0c0,0 -0.172,0.505 -0.288,0.811l-1.765,4.483l-0.621,-0l-1.765,-4.483c-0.125,-0.325 -0.288,-0.811 -0.288,-0.811l-0.018,0l0,5.294l-0.729,-0l0,-6.437" style="fill:#6d6f71;fill-rule:nonzero;"/><path d="M183.493,28.737l4.546,0l0,0.711l-3.736,0l0,2.034l3.394,0l0,0.685l-3.394,0l0,2.26l3.844,0l0,0.747l-4.654,-0l0,-6.437" style="fill:#6d6f71;fill-rule:nonzero;"/><path d="M189.226,28.737l0.854,0l2.936,4.474c0.215,0.333 0.467,0.828 0.467,0.828l0.019,0l0,-5.302l0.756,0l0,6.437l-0.828,-0l-2.953,-4.483c-0.207,-0.316 -0.478,-0.801 -0.478,-0.801l-0.018,-0l0,5.284l-0.755,-0l0,-6.437" style="fill:#6d6f71;fill-rule:nonzero;"/><path d="M195.263,28.737l5.095,0l0,0.711l-2.142,0l0,5.726l-0.811,-0l0,-5.726l-2.142,0l0,-0.711" style="fill:#6d6f71;fill-rule:nonzero;"/><path d="M208.089,31.951c0,-1.512 -0.811,-2.656 -2.323,-2.656c-1.512,-0 -2.323,1.144 -2.323,2.656c0,1.512 0.811,2.647 2.323,2.647c1.512,-0 2.323,-1.135 2.323,-2.647Zm-5.474,0c0,-1.926 1.206,-3.358 3.151,-3.358c1.945,0 3.151,1.432 3.151,3.358c0,1.926 -1.206,3.358 -3.151,3.358c-1.945,0 -3.151,-1.432 -3.151,-3.358" style="fill:#6d6f71;fill-rule:nonzero;"/><path d="M210.168,28.737l4.366,0l0,0.711l-3.556,0l0,2.008l2.961,0l0,0.684l-2.961,-0l0,3.034l-0.81,-0l0,-6.437" style="fill:#6d6f71;fill-rule:nonzero;"/><path d="M216.828,31.951c0,-1.891 1.134,-3.358 3.052,-3.358c1.503,-0 2.413,0.864 2.584,2.053l-0.793,-0c-0.152,-0.802 -0.792,-1.351 -1.81,-1.351c-1.413,-0 -2.205,1.144 -2.205,2.656c0,1.576 0.873,2.638 2.215,2.638c1.215,0 1.791,-0.828 1.872,-1.773l0.802,-0c-0.01,0.638 -0.316,1.359 -0.774,1.809c-0.451,0.441 -1.108,0.675 -1.927,0.675c-1.827,0 -3.016,-1.395 -3.016,-3.349" style="fill:#6d6f71;fill-rule:nonzero;"/><path d="M228.926,31.951c0,-1.512 -0.811,-2.656 -2.323,-2.656c-1.512,-0 -2.323,1.144 -2.323,2.656c0,1.512 0.811,2.647 2.323,2.647c1.512,-0 2.323,-1.135 2.323,-2.647Zm-5.474,0c0,-1.926 1.206,-3.358 3.151,-3.358c1.945,0 3.151,1.432 3.151,3.358c-0,1.926 -1.206,3.358 -3.151,3.358c-1.945,0 -3.151,-1.432 -3.151,-3.358" style="fill:#6d6f71;fill-rule:nonzero;"/><path d="M231.005,28.737l1.035,0l2.089,5.348l0.017,0l2.071,-5.348l1.054,0l0,6.437l-0.775,-0l0,-5.294l-0.017,0c0,0 -0.172,0.505 -0.289,0.811l-1.764,4.483l-0.621,-0l-1.765,-4.483c-0.126,-0.325 -0.288,-0.811 -0.288,-0.811l-0.019,0l0,5.294l-0.728,-0l0,-6.437" style="fill:#6d6f71;fill-rule:nonzero;"/><path d="M238.804,28.737l1.035,0l2.089,5.348l0.017,0l2.071,-5.348l1.053,0l0,6.437l-0.774,-0l0,-5.294l-0.018,0c0,0 -0.172,0.505 -0.288,0.811l-1.764,4.483l-0.621,-0l-1.765,-4.483c-0.126,-0.325 -0.288,-0.811 -0.288,-0.811l-0.019,0l0,5.294l-0.728,-0l0,-6.437" style="fill:#6d6f71;fill-rule:nonzero;"/><path d="M246.602,28.737l4.545,0l0,0.711l-3.736,0l0,2.034l3.395,0l0,0.685l-3.395,0l0,2.26l3.845,0l0,0.747l-4.654,-0l0,-6.437" style="fill:#6d6f71;fill-rule:nonzero;"/><path d="M253.144,31.798l1.909,-0c0.9,-0 1.35,-0.45 1.35,-1.18c0,-0.783 -0.36,-1.179 -1.305,-1.179l-1.954,0l0,2.359Zm-0.81,-3.061l3.007,0c1.134,0 1.899,0.711 1.899,1.764c0,0.784 -0.342,1.342 -1.116,1.594l0,0.027c0.657,0.235 0.864,0.684 0.927,1.639c0.072,1.035 0.18,1.296 0.297,1.377l0,0.036l-0.873,-0c-0.135,-0.117 -0.162,-0.36 -0.234,-1.44c-0.063,-0.946 -0.441,-1.279 -1.305,-1.279l-1.792,0l-0,2.719l-0.81,-0l-0,-6.437" style="fill:#6d6f71;fill-rule:nonzero;"/><path d="M258.238,31.951c0,-1.891 1.134,-3.358 3.052,-3.358c1.503,-0 2.413,0.864 2.584,2.053l-0.793,-0c-0.152,-0.802 -0.792,-1.351 -1.81,-1.351c-1.413,-0 -2.205,1.144 -2.205,2.656c0,1.576 0.873,2.638 2.215,2.638c1.215,0 1.791,-0.828 1.872,-1.773l0.802,-0c-0.01,0.638 -0.315,1.359 -0.774,1.809c-0.451,0.441 -1.108,0.675 -1.927,0.675c-1.827,0 -3.016,-1.395 -3.016,-3.349" style="fill:#6d6f71;fill-rule:nonzero;"/><path d="M265.157,28.737l4.546,0l0,0.711l-3.736,0l0,2.034l3.394,0l0,0.685l-3.394,0l0,2.26l3.845,0l0,0.747l-4.655,-0l0,-6.437" style="fill:#6d6f71;fill-rule:nonzero;"/><path d="M114.095,0.979l0,5.42l4.706,3.123l-4.706,3.133l0,25.764" style="fill:none;fill-rule:nonzero;stroke:#231f20;stroke-width:1.02px;"/><path d="M6.865,35.083l-5.888,-0l-0,-22.739c-0,0.025 -0,-4.29 4.309,-5.727c3.885,-1.246 6.485,1.265 6.488,1.256l19.414,20.993c0.975,0.602 1.371,-0.023 1.362,-0.6l-0,-21.649l5.943,0l0,22.576c-0.025,1.922 -1.616,4.309 -3.87,5.236c-2.31,0.898 -4.847,0.891 -7.852,-1.637l-18.16,-19.738c-0.478,-0.513 -1.726,-0.57 -1.746,0.436l0,21.593" style="fill:#231f20;fill-rule:nonzero;"/><path d="M42.311,6.617l5.944,0l-0,20.396c-0.019,2.171 1.797,2.171 3.597,2.18l26.394,0c1.103,-0.009 2.353,-1.307 2.345,-2.615c0.008,-1.361 -1.266,-2.734 -2.455,-2.727l-17.176,-0c-2.954,0.108 -9.086,-2.62 -9.108,-8.399c0.022,-7.057 5.815,-8.649 8.455,-8.835l48.586,0l0,5.999l-12.163,0l0,22.467l-5.889,-0l0,-22.467l-29.773,0c-2.835,-0.247 -4.879,4.639 -0.218,5.345l18.268,-0c2.745,-0.025 7.288,2.363 7.306,8.289c-0.018,6 -3.538,8.841 -7.306,8.833l-26.992,-0c-4.457,0.008 -6.056,-1.007 -7.635,-2.508c-1.462,-1.444 -1.707,-2.255 -2.18,-5.236l0,-20.722" style="fill:#231f20;fill-rule:nonzero;"/></g></svg>